<svg width="203" height="26" viewBox="0 0 203 26" fill="none" xmlns="http://www.w3.org/2000/svg">
<path d="M139.814 21.091C139.216 21.091 138.679 20.987 138.202 20.779C137.734 20.5623 137.366 20.2677 137.097 19.895C136.828 19.5137 136.69 19.076 136.681 18.582H137.942C137.985 19.0067 138.159 19.3663 138.462 19.661C138.774 19.947 139.225 20.09 139.814 20.09C140.377 20.09 140.819 19.9513 141.14 19.674C141.469 19.388 141.634 19.024 141.634 18.582C141.634 18.2353 141.539 17.9537 141.348 17.737C141.157 17.5203 140.919 17.3557 140.633 17.243C140.347 17.1303 139.961 17.009 139.476 16.879C138.878 16.723 138.397 16.567 138.033 16.411C137.678 16.255 137.37 16.0123 137.11 15.683C136.859 15.345 136.733 14.8943 136.733 14.331C136.733 13.837 136.859 13.3993 137.11 13.018C137.361 12.6367 137.712 12.342 138.163 12.134C138.622 11.926 139.147 11.822 139.736 11.822C140.585 11.822 141.279 12.0343 141.816 12.459C142.362 12.8837 142.67 13.447 142.739 14.149H141.439C141.396 13.8023 141.214 13.499 140.893 13.239C140.572 12.9703 140.148 12.836 139.619 12.836C139.125 12.836 138.722 12.966 138.41 13.226C138.098 13.4773 137.942 13.8327 137.942 14.292C137.942 14.6213 138.033 14.89 138.215 15.098C138.406 15.306 138.635 15.4663 138.904 15.579C139.181 15.683 139.567 15.8043 140.061 15.943C140.659 16.1077 141.14 16.2723 141.504 16.437C141.868 16.593 142.18 16.84 142.44 17.178C142.7 17.5073 142.83 17.958 142.83 18.53C142.83 18.972 142.713 19.388 142.479 19.778C142.245 20.168 141.898 20.4843 141.439 20.727C140.98 20.9697 140.438 21.091 139.814 21.091ZM153.593 11.939V12.901H151.123V21H149.94V12.901H147.457V11.939H153.593ZM163.265 21L161.107 17.295H159.677V21H158.494V11.939H161.419C162.104 11.939 162.68 12.056 163.148 12.29C163.625 12.524 163.98 12.8403 164.214 13.239C164.448 13.6377 164.565 14.0927 164.565 14.604C164.565 15.228 164.383 15.7783 164.019 16.255C163.664 16.7317 163.126 17.048 162.407 17.204L164.682 21H163.265ZM159.677 16.346H161.419C162.06 16.346 162.541 16.19 162.862 15.878C163.183 15.5573 163.343 15.1327 163.343 14.604C163.343 14.0667 163.183 13.6507 162.862 13.356C162.55 13.0613 162.069 12.914 161.419 12.914H159.677V16.346ZM171.031 12.901V15.93H174.333V16.905H171.031V20.025H174.723V21H169.848V11.926H174.723V12.901H171.031ZM185.314 18.985H181.362L180.634 21H179.386L182.662 11.991H184.027L187.29 21H186.042L185.314 18.985ZM184.976 18.023L183.338 13.447L181.7 18.023H184.976ZM197.077 21L193.346 16.866V21H192.163V11.939H193.346V16.138L197.09 11.939H198.585L194.477 16.476L198.624 21H197.077Z" fill="#E73A78"/>
<path d="M35.538 16.333C35.8673 16.385 36.1663 16.5193 36.435 16.736C36.7123 16.9527 36.929 17.2213 37.085 17.542C37.2497 17.8627 37.332 18.205 37.332 18.569C37.332 19.0283 37.215 19.4443 36.981 19.817C36.747 20.181 36.4047 20.4713 35.954 20.688C35.512 20.896 34.9877 21 34.381 21H31.001V11.939H34.251C34.8663 11.939 35.3907 12.043 35.824 12.251C36.2573 12.4503 36.5823 12.7233 36.799 13.07C37.0157 13.4167 37.124 13.8067 37.124 14.24C37.124 14.7773 36.9767 15.2237 36.682 15.579C36.396 15.9257 36.0147 16.177 35.538 16.333ZM32.184 15.852H34.173C34.7277 15.852 35.1567 15.722 35.46 15.462C35.7633 15.202 35.915 14.8423 35.915 14.383C35.915 13.9237 35.7633 13.564 35.46 13.304C35.1567 13.044 34.719 12.914 34.147 12.914H32.184V15.852ZM34.277 20.025C34.8663 20.025 35.3257 19.8863 35.655 19.609C35.9843 19.3317 36.149 18.946 36.149 18.452C36.149 17.9493 35.9757 17.555 35.629 17.269C35.2823 16.9743 34.8187 16.827 34.238 16.827H32.184V20.025H34.277ZM47.1897 21L45.0317 17.295H43.6017V21H42.4187V11.939H45.3437C46.0283 11.939 46.6047 12.056 47.0727 12.29C47.5493 12.524 47.9047 12.8403 48.1387 13.239C48.3727 13.6377 48.4897 14.0927 48.4897 14.604C48.4897 15.228 48.3077 15.7783 47.9437 16.255C47.5883 16.7317 47.051 17.048 46.3317 17.204L48.6067 21H47.1897ZM43.6017 16.346H45.3437C45.985 16.346 46.466 16.19 46.7867 15.878C47.1073 15.5573 47.2677 15.1327 47.2677 14.604C47.2677 14.0667 47.1073 13.6507 46.7867 13.356C46.4747 13.0613 45.9937 12.914 45.3437 12.914H43.6017V16.346ZM54.9558 12.901V15.93H58.2578V16.905H54.9558V20.025H58.6478V21H53.7728V11.926H58.6478V12.901H54.9558ZM69.2389 18.985H65.2869L64.5589 21H63.3109L66.5869 11.991H67.9519L71.2149 21H69.9669L69.2389 18.985ZM68.9009 18.023L67.2629 13.447L65.6249 18.023H68.9009ZM81.0016 21L77.2706 16.866V21H76.0876V11.939H77.2706V16.138L81.0146 11.939H82.5096L78.4016 16.476L82.5486 21H81.0016ZM92.4369 11.939V12.901H88.4979V15.956H91.6959V16.918H88.4979V21H87.3149V11.939H92.4369ZM102.667 18.985H98.7146L97.9866 21H96.7386L100.015 11.991H101.38L104.643 21H103.395L102.667 18.985ZM102.329 18.023L100.691 13.447L99.0526 18.023H102.329ZM112.388 21.091C111.79 21.091 111.253 20.987 110.776 20.779C110.308 20.5623 109.94 20.2677 109.671 19.895C109.403 19.5137 109.264 19.076 109.255 18.582H110.516C110.56 19.0067 110.733 19.3663 111.036 19.661C111.348 19.947 111.799 20.09 112.388 20.09C112.952 20.09 113.394 19.9513 113.714 19.674C114.044 19.388 114.208 19.024 114.208 18.582C114.208 18.2353 114.113 17.9537 113.922 17.737C113.732 17.5203 113.493 17.3557 113.207 17.243C112.921 17.1303 112.536 17.009 112.05 16.879C111.452 16.723 110.971 16.567 110.607 16.411C110.252 16.255 109.944 16.0123 109.684 15.683C109.433 15.345 109.307 14.8943 109.307 14.331C109.307 13.837 109.433 13.3993 109.684 13.018C109.936 12.6367 110.287 12.342 110.737 12.134C111.197 11.926 111.721 11.822 112.31 11.822C113.16 11.822 113.853 12.0343 114.39 12.459C114.936 12.8837 115.244 13.447 115.313 14.149H114.013C113.97 13.8023 113.788 13.499 113.467 13.239C113.147 12.9703 112.722 12.836 112.193 12.836C111.699 12.836 111.296 12.966 110.984 13.226C110.672 13.4773 110.516 13.8327 110.516 14.292C110.516 14.6213 110.607 14.89 110.789 15.098C110.98 15.306 111.21 15.4663 111.478 15.579C111.756 15.683 112.141 15.8043 112.635 15.943C113.233 16.1077 113.714 16.2723 114.078 16.437C114.442 16.593 114.754 16.84 115.014 17.178C115.274 17.5073 115.404 17.958 115.404 18.53C115.404 18.972 115.287 19.388 115.053 19.778C114.819 20.168 114.473 20.4843 114.013 20.727C113.554 20.9697 113.012 21.091 112.388 21.091ZM126.167 11.939V12.901H123.697V21H122.514V12.901H120.031V11.939H126.167Z" fill="black"/>
<path d="M200.567 11.369L134.321 21.2798" stroke="#B0B0B0" stroke-width="0.5"/>
<rect width="26" height="26" fill="white"/>
<path d="M7.62076 12.5819C7.54974 12.3707 1.2655 7.66576 2.80396 3.15161" stroke="black"/>
<path d="M5.59685 15.2492C5.60835 15.1417 4.36734 13.5064 5.58606 10.7153" stroke="black"/>
<path d="M8 9C7.35 9 5.84 9 5 9" stroke="black"/>
<circle cx="5" cy="15" r="2" fill="#F3316B"/>
<ellipse cx="8" cy="12.5" rx="2" ry="1.5" fill="#F3316B"/>
<circle cx="9" cy="17" r="2" fill="#F3316B"/>
<circle cx="12" cy="15" r="2" fill="#F3316B"/>
<ellipse cx="13" cy="18.5" rx="2" ry="1.5" fill="#F3316B"/>
<ellipse cx="9.5" cy="21" rx="1.5" ry="2" fill="#F3316B"/>
<circle cx="13" cy="22" r="2" fill="#F3316B"/>
<circle cx="17" cy="24" r="2" fill="#F3316B"/>
<circle cx="17" cy="20" r="2" fill="#F3316B"/>
<circle cx="16" cy="16" r="2" fill="#F3316B"/>
<circle cx="15" cy="12" r="2" fill="#F3316B"/>
<circle cx="11" cy="11" r="2" fill="#F3316B"/>
<circle cx="8" cy="8" r="2" fill="#F3316B"/>
<circle cx="6" cy="19" r="2" fill="#F3316B"/>
</svg>
